<svg xmlns="http://www.w3.org/2000/svg" width="1000" height="430" viewBox="0 0 1000 430" font-family="Inter,ui-sans-serif,Segoe UI,Roboto,sans-serif">
  <defs>
    <linearGradient id="bg" x1="0" y1="0" x2="1" y2="1"><stop offset="0" stop-color="#0b0c13"/><stop offset="1" stop-color="#06070b"/></linearGradient>
    <radialGradient id="vig" cx="0.78" cy="-0.05" r="0.9"><stop offset="0" stop-color="#1a1640" stop-opacity="0.5"/><stop offset="1" stop-color="#06070b" stop-opacity="0"/></radialGradient>
    <pattern id="dots" width="24" height="24" patternUnits="userSpaceOnUse"><circle cx="1.5" cy="1.5" r="1" fill="#fff" opacity="0.025"/></pattern>
    <linearGradient id="win" x1="0" y1="0" x2="1" y2="0"><stop offset="0" stop-color="#5ad19a"/><stop offset="1" stop-color="#5ad1c9"/></linearGradient>
    <linearGradient id="safe" x1="0" y1="0" x2="1" y2="0"><stop offset="0" stop-color="#3a6f8f"/><stop offset="1" stop-color="#4f8fb0"/></linearGradient>
    <linearGradient id="fail" x1="0" y1="0" x2="1" y2="0"><stop offset="0" stop-color="#8a4a55"/><stop offset="1" stop-color="#c06b78"/></linearGradient>
    <filter id="gl" x="-60%" y="-60%" width="220%" height="220%"><feGaussianBlur stdDeviation="6" result="b"/><feMerge><feMergeNode in="b"/><feMergeNode in="SourceGraphic"/></feMerge></filter>
  </defs>

  <rect width="1000" height="430" fill="url(#bg)"/>
  <rect width="1000" height="430" fill="url(#dots)"/>
  <rect width="1000" height="430" fill="url(#vig)"/>

  <!-- Title -->
  <text x="40" y="48" font-size="22" font-weight="800" letter-spacing="-0.3" fill="#f2f3f7">Live head-to-head <tspan fill="#8b91a3" font-weight="400" font-size="13.5">— certified token savings, graded live by claude-opus-4-8</tspan></text>
  <text x="40" y="72" font-size="13" fill="#8b91a3">Bar = token savings. Only a bar that holds <tspan fill="#5ad19a">decision-equivalence</tspan> counts — the rest is disqualified, however much it cut.</text>

  <!-- scale gridlines -->
  <g stroke="#222633" stroke-width="1">
    <line x1="250" y1="100" x2="250" y2="372"/>
    <line x1="409" y1="100" x2="409" y2="372"/>
    <line x1="568" y1="100" x2="568" y2="372"/>
    <line x1="727" y1="100" x2="727" y2="372"/>
  </g>
  <g font-size="11" fill="#5b6177" text-anchor="middle">
    <text x="250" y="392">0%</text><text x="409" y="392">30%</text><text x="568" y="392">60%</text><text x="727" y="392">90%</text>
  </g>

  <!-- Distil row (winner) -->
  <text x="40" y="142" font-size="15" font-weight="700" fill="#f2f3f7">Distil</text>
  <text x="40" y="160" font-size="11" fill="#5b6177">causal-prune + lossless</text>
  <rect x="250" y="120" width="440" height="34" rx="6" fill="url(#win)" filter="url(#gl)"/>
  <text x="702" y="142" font-size="15" font-weight="800" fill="#5ad19a">83.2%</text>
  <g transform="translate(770,120)">
    <rect width="190" height="34" rx="6" fill="#10231a" stroke="#2f6b4d"/>
    <text x="12" y="15" font-size="11" fill="#5ad19a" font-weight="700">0.0% decision-change</text>
    <text x="12" y="28" font-size="10.5" fill="#8b91a3">✔ certified · 0.026 ms/turn</text>
  </g>

  <!-- LLMLingua row (fails) -->
  <text x="40" y="232" font-size="15" font-weight="700" fill="#f2f3f7">LLMLingua-2</text>
  <text x="40" y="250" font-size="11" fill="#5b6177">extractive classifier</text>
  <rect x="250" y="210" width="281" height="34" rx="6" fill="url(#fail)"/>
  <text x="543" y="232" font-size="15" font-weight="800" fill="#c06b78">53.1%</text>
  <g transform="translate(770,210)">
    <rect width="190" height="34" rx="6" fill="#23121620" fill-opacity="0.5"/>
    <rect width="190" height="34" rx="6" fill="#2a1419" stroke="#7a3a44"/>
    <text x="12" y="15" font-size="11" fill="#c06b78" font-weight="700">12.5% decision-change</text>
    <text x="12" y="28" font-size="10.5" fill="#8b91a3">✘ fails gate · ~1,480 ms/turn</text>
  </g>

  <!-- Headroom row (safe, conservative) -->
  <text x="40" y="322" font-size="15" font-weight="700" fill="#f2f3f7">Headroom</text>
  <text x="40" y="340" font-size="11" fill="#5b6177">structural crusher</text>
  <rect x="250" y="300" width="210" height="34" rx="6" fill="url(#safe)"/>
  <text x="472" y="322" font-size="15" font-weight="800" fill="#5f9fc0">39.7%</text>
  <g transform="translate(770,300)">
    <rect width="190" height="34" rx="6" fill="#0f1c24" stroke="#33586b"/>
    <text x="12" y="15" font-size="11" fill="#5f9fc0" font-weight="700">0.0% decision-change</text>
    <text x="12" y="28" font-size="10.5" fill="#8b91a3">✔ certified · 26 ms/turn</text>
  </g>

  <!-- footnote -->
  <text x="40" y="416" font-size="11.5" fill="#6b7287">Distil: highest savings <tspan fill="#8b91a3">·</tspan> zero decision change <tspan fill="#8b91a3">·</tspan> ~1,000× lower latency. Headroom is safe but 2.1× less aggressive; LLMLingua-2 cuts deep but flips 1-in-8 decisions. <tspan fill="#5b6177">n=120, α=5%/95%.</tspan></text>
</svg>
